# Blender v2.93.4 OBJ File: 'apartment1.blend'
# www.blender.org
mtllib apartment1.mtl
o Cube
v 0.500000 0.500000 -0.500000
v 0.500000 -0.500000 -0.500000
v 0.500000 0.500000 0.500000
v 0.500000 -0.500000 0.500000
v -0.500000 0.500000 -0.500000
v -0.500000 -0.500000 -0.500000
v -0.500000 0.500000 0.500000
v -0.500000 -0.500000 0.500000
v 0.500000 -0.000778 -0.500000
v -0.500000 -0.000778 0.500000
v 0.500000 -0.000778 0.500000
v -0.500000 -0.000778 -0.500000
v 0.411302 -0.249180 -0.428277
v 0.411302 -0.249180 0.428277
v -0.411302 -0.249180 -0.428277
v -0.411302 -0.249180 0.428277
v -0.500000 0.474181 0.500000
v 0.500000 0.474181 -0.500000
v 0.500000 0.474181 0.500000
v -0.500000 0.474181 -0.500000
v 0.368478 0.006003 -0.354774
v -0.368478 0.006003 0.354774
v 0.368478 0.006003 0.354774
v -0.368478 0.006003 -0.354774
v -0.368478 0.480962 0.354774
v 0.368478 0.480962 -0.354774
v 0.368478 0.480962 0.354774
v -0.368478 0.480962 -0.354774
v 0.411302 -0.459920 -0.412183
v 0.411302 -0.459920 0.412183
v -0.411302 -0.459920 -0.412183
v -0.411302 -0.459920 0.412183
v 0.411302 -0.249180 -0.412183
v 0.411302 -0.249180 0.412183
v -0.411302 -0.249180 -0.412183
v -0.411302 -0.249180 0.412183
v -0.491836 -0.225506 0.509830
v 0.491836 -0.225506 -0.509830
v 0.491836 -0.225506 0.509830
v -0.491836 -0.225506 -0.509830
vt 0.625000 0.500000
vt 0.875000 0.500000
vt 0.875000 0.750000
vt 0.625000 0.750000
vt 0.618545 0.750000
vt 0.625000 1.000000
vt 0.618545 1.000000
vt 0.618545 0.000000
vt 0.625000 0.000000
vt 0.625000 0.250000
vt 0.618545 0.250000
vt 0.125000 0.500000
vt 0.375000 0.500000
vt 0.375000 0.750000
vt 0.125000 0.750000
vt 0.618545 0.500000
vt 0.443623 0.250000
vt 0.499806 0.250000
vt 0.499806 0.500000
vt 0.443623 0.500000
vt 0.499806 0.750000
vt 0.443623 0.750000
vt 0.443623 0.000000
vt 0.499806 0.000000
vt 0.499806 1.000000
vt 0.443623 1.000000
vt 0.385020 0.750000
vt 0.437705 0.750000
vt 0.437705 1.000000
vt 0.385020 1.000000
vt 0.385020 0.000000
vt 0.437705 0.000000
vt 0.437705 0.250000
vt 0.385020 0.250000
vt 0.385020 0.500000
vt 0.437705 0.500000
vt 0.499806 0.000000
vt 0.499806 0.250000
vt 0.618545 0.750000
vt 0.618545 0.500000
vt 0.618545 1.000000
vt 0.499806 0.500000
vt 0.499806 0.750000
vt 0.618545 0.250000
vt 0.618545 0.000000
vt 0.499806 1.000000
vt 0.375000 0.250000
vt 0.375000 0.000000
vt 0.375000 1.000000
vt 0.437705 0.250000
vt 0.437705 0.500000
vt 0.437705 0.000000
vt 0.437705 0.750000
vt 0.437705 1.000000
vn 0.0000 1.0000 0.0000
vn 0.0000 0.0000 1.0000
vn -1.0000 0.0000 0.0000
vn 0.0000 -1.0000 0.0000
vn 1.0000 0.0000 0.0000
vn 0.0000 0.0000 -1.0000
vn 0.0000 0.0437 -0.9990
vn 0.9993 -0.0363 0.0000
vn -0.9993 -0.0363 0.0000
vn 0.0000 0.0437 0.9990
vn 0.0000 -0.0761 0.9971
vn 0.0000 -0.0761 -0.9971
vn -0.0515 0.9987 0.0000
vn -0.0515 -0.9987 0.0000
vn -0.0000 -0.9989 -0.0466
vn 0.0515 0.9987 0.0000
vn 0.0000 0.9989 -0.0466
vn 0.0515 -0.9987 0.0000
vn 0.0000 -0.9989 0.0466
vn 0.0000 0.9989 0.0466
vn 0.0000 0.9097 -0.4152
vn 0.4118 0.9113 0.0000
vn -0.4118 0.9113 0.0000
vn 0.0000 0.9097 0.4152
vn -0.0000 -0.9604 0.2788
vn -0.2820 -0.9594 0.0000
vn 0.2820 -0.9594 0.0000
vn 0.0000 -0.9604 -0.2788
usemtl Material
s off
f 1/1/1 5/2/1 7/3/1 3/4/1
f 19/5/2 3/4/2 7/6/2 17/7/2
f 17/8/3 7/9/3 5/10/3 20/11/3
f 6/12/4 2/13/4 4/14/4 8/15/4
f 18/16/5 1/1/5 3/4/5 19/5/5
f 20/11/6 5/10/6 1/1/6 18/16/6
f 40/17/7 12/18/7 9/19/7 38/20/7
f 38/20/8 9/19/8 11/21/8 39/22/8
f 37/23/9 10/24/9 12/18/9 40/17/9
f 39/22/10 11/21/10 10/25/10 37/26/10
f 30/27/11 14/28/11 16/29/11 32/30/11
f 32/31/3 16/32/3 15/33/3 31/34/3
f 29/35/5 13/36/5 14/28/5 30/27/5
f 31/34/12 15/33/12 13/36/12 29/35/12
f 12/18/13 10/24/13 22/37/13 24/38/13
f 18/16/14 19/5/14 27/39/14 26/40/14
f 19/5/15 17/7/15 25/41/15 27/39/15
f 11/21/16 9/19/16 21/42/16 23/43/16
f 24/38/6 28/44/6 26/40/6 21/42/6
f 21/42/5 26/40/5 27/39/5 23/43/5
f 22/37/3 25/45/3 28/44/3 24/38/3
f 23/43/2 27/39/2 25/41/2 22/46/2
f 9/19/17 12/18/17 24/38/17 21/42/17
f 17/8/18 20/11/18 28/44/18 25/45/18
f 20/11/19 18/16/19 26/40/19 28/44/19
f 10/25/20 11/21/20 23/43/20 22/46/20
f 6/47/21 31/34/21 29/35/21 2/13/21
f 2/13/22 29/35/22 30/27/22 4/14/22
f 8/48/23 32/31/23 31/34/23 6/47/23
f 4/14/24 30/27/24 32/30/24 8/49/24
f 13/36/1 15/33/1 35/50/1 33/51/1
f 15/33/2 16/32/2 36/52/2 35/50/2
f 14/28/2 13/36/2 33/51/2 34/53/2
f 16/29/1 14/28/1 34/53/1 36/54/1
f 14/28/25 39/22/25 37/26/25 16/29/25
f 16/32/26 37/23/26 40/17/26 15/33/26
f 13/36/27 38/20/27 39/22/27 14/28/27
f 15/33/28 40/17/28 38/20/28 13/36/28
