# Blender v2.93.4 OBJ File: ''
# www.blender.org
mtllib fracturedCube-cubes2.mtl
o Cube_cell_Cube_cell.008
v 0.000569 0.001418 -0.000558
v 0.500000 0.500000 -0.500000
v 0.000839 0.500000 -0.000661
v 0.000804 0.001190 -0.500000
v 0.000939 0.500000 -0.500000
v 0.500000 0.001326 -0.000676
v 0.500000 0.000959 -0.500000
v 0.500000 0.500000 -0.000698
v 0.000839 0.500000 -0.000661
v 0.000939 0.500000 -0.500000
v 0.000804 0.001190 -0.500000
v 0.500000 0.000959 -0.500000
v 0.500000 0.500000 -0.000698
v 0.500000 0.001326 -0.000676
vt 0.091272 0.091272
vt 0.091744 0.090385
vt 1.000000 0.091689
vt 1.000000 1.000000
vt 0.091462 0.091462
vt 0.091142 0.090451
vt 1.000000 0.091272
vt 0.625000 0.624826
vt 0.625000 0.500000
vt 0.749765 0.500000
vt 0.749790 0.624835
vt 0.500240 0.500000
vt 0.500332 0.624831
vt 0.500297 0.375201
vt 0.625000 0.375235
vt 0.091021 0.090600
vt 1.000000 0.091462
vt 0.091689 0.091689
vn -0.0003 -1.0000 0.0006
vn -1.0000 0.0004 -0.0003
vn 0.0000 1.0000 0.0000
vn 1.0000 0.0000 0.0000
vn 0.0000 0.0000 -1.0000
vn 0.0002 0.0001 1.0000
usemtl Material
s off
f 11/1/1 12/2/1 14/3/1 1/4/1
f 9/5/2 10/6/2 11/7/2 1/4/2
f 13/8/3 2/9/3 5/10/3 3/11/3
f 7/12/4 2/9/4 13/8/4 6/13/4
f 4/14/5 5/15/5 2/9/5 7/12/5
f 8/16/6 9/17/6 1/4/6 14/18/6
o Cube_cell.001_Cube_cell.009
v 0.000841 -0.001146 -0.000903
v 0.500000 -0.500000 -0.500000
v 0.000637 -0.500000 -0.051025
v 0.000847 -0.500000 -0.500000
v 0.000665 -0.050528 -0.500000
v 0.051079 -0.500000 -0.000673
v 0.500000 -0.500000 -0.000793
v 0.500000 -0.051404 -0.000677
v 0.500000 -0.001385 -0.000698
v 0.000653 -0.500000 -0.000694
v 0.000684 -0.000880 -0.500000
v 0.500000 -0.001103 -0.500000
v 0.000637 -0.500000 -0.051025
v 0.000847 -0.500000 -0.500000
v 0.051079 -0.500000 -0.000673
v 0.500000 -0.500000 -0.000793
v 0.500000 -0.051404 -0.000677
v 0.500000 -0.001385 -0.000698
v 0.500000 -0.001103 -0.500000
v 0.000665 -0.050528 -0.500000
v 0.000684 -0.000880 -0.500000
v 0.000653 -0.500000 -0.000694
vt 0.908275 0.908275
vt 0.090389 0.090389
vt 0.908398 0.091040
vt 1.000000 0.908182
vt 0.183287 0.091437
vt 1.000000 0.091064
vt 0.091064 0.091064
vt 0.091099 0.000000
vt 1.000000 0.000000
vt 1.000000 0.908226
vt 0.908182 0.908182
vt 0.000000 0.000000
vt 0.909573 0.000000
vt 1.000000 0.090389
vt 1.000000 0.908275
vt 0.908226 0.908226
vt 0.250159 0.612244
vt 0.250212 0.500000
vt 0.375000 0.500000
vt 0.375000 0.624802
vt 0.262770 0.624832
vt 0.250163 0.624826
vt 0.499654 0.624826
vt 0.487149 0.624831
vt 0.499724 0.500000
vt 0.375000 0.375212
vt 0.487368 0.375166
vt 0.499780 0.375171
vt 0.091223 0.000128
vt 0.909573 0.909573
vt 1.000000 0.908901
vn -1.0000 -0.0004 -0.0005
vn 0.0003 -0.0003 1.0000
vn -0.0004 0.0004 1.0000
vn -1.0000 0.0004 0.0003
vn 0.0000 -1.0000 0.0000
vn 1.0000 0.0000 0.0000
vn 0.0000 0.0000 -1.0000
vn 0.0005 1.0000 0.0005
usemtl Material
s off
f 27/19/7 34/20/7 28/21/7
f 29/22/8 30/23/8 31/24/8
f 31/25/9 32/26/9 15/27/9 36/28/9 29/29/9
f 15/30/10 35/31/10 34/32/10 27/33/10 36/34/10
f 17/35/11 18/36/11 16/37/11 21/38/11 20/39/11 24/40/11
f 23/41/12 22/42/12 21/38/12 16/37/12 33/43/12
f 33/43/13 16/37/13 18/44/13 19/45/13 25/46/13
f 26/47/14 35/48/14 15/27/14 32/49/14
o Cube_cell.002_Cube_cell.001
v 0.000701 0.000718 0.001328
v 0.500000 0.500000 0.500000
v 0.000629 0.001274 0.500000
v 0.000629 0.051424 0.500000
v 0.000697 0.500000 0.051188
v 0.000704 0.500000 0.000866
v 0.051051 0.500000 0.000857
v 0.500000 0.000998 0.001238
v 0.500000 0.051088 0.001192
v 0.500000 0.001215 0.500000
v 0.001145 0.500000 0.500000
v 0.500000 0.500000 0.001312
v 0.000629 0.001274 0.500000
v 0.000629 0.051424 0.500000
v 0.000697 0.500000 0.051188
v 0.000704 0.500000 0.000866
v 0.051051 0.500000 0.000857
v 0.500000 0.000998 0.001238
v 0.500000 0.051088 0.001192
v 0.001145 0.500000 0.500000
v 0.500000 0.500000 0.001312
v 0.500000 0.001215 0.500000
vt 0.908304 0.000000
vt 1.000000 0.091594
vt 1.000000 1.000000
vt 0.091330 0.091330
vt 0.091245 0.000000
vt 1.000000 0.091134
vt 0.091594 0.091594
vt 0.091645 0.000000
vt 0.908865 0.000000
vt 1.000000 0.091696
vt 1.000000 0.908755
vt 0.182076 0.091669
vt 1.000000 0.908355
vt 0.183007 0.091143
vt 1.000000 0.091135
vt 0.749824 0.625216
vt 0.749826 0.637797
vt 0.749714 0.750000
vt 0.625000 0.750000
vt 0.625000 0.625328
vt 0.737237 0.625214
vt 0.500304 0.750000
vt 0.625000 0.874714
vt 0.512856 0.874843
vt 0.500318 0.874843
vt 0.500249 0.625310
vt 0.512772 0.625298
vt 0.091764 0.090700
vt 1.000000 0.091330
vt 0.091134 0.091134
vn -1.0000 0.0000 -0.0001
vn -0.0002 -0.0009 -1.0000
vn -1.0000 0.0011 0.0010
vn 0.0010 0.0003 -1.0000
vn 0.0000 1.0000 0.0000
vn -0.0000 0.0000 1.0000
vn 1.0000 0.0000 0.0000
vn 0.0002 -1.0000 0.0008
usemtl Material
s off
f 51/50/15 52/51/15 37/52/15 49/53/15 50/54/15
f 54/55/16 37/52/16 52/56/16 53/57/16 55/58/16
f 51/59/17 50/60/17 47/61/17
f 53/62/18 57/63/18 55/64/18
f 42/65/19 41/66/19 56/67/19 38/68/19 48/69/19 43/70/19
f 58/71/20 38/68/20 56/72/20 40/73/20 39/74/20
f 58/71/21 44/75/21 45/76/21 48/69/21 38/68/21
f 46/77/22 49/78/22 37/52/22 54/79/22
o Cube_cell.003_Cube_cell.002
v 0.000867 -0.000851 0.001048
v 0.500000 -0.500000 0.500000
v 0.050340 -0.500000 0.001049
v 0.500000 -0.500000 0.001212
v 0.500000 -0.050651 0.000599
v 0.000669 -0.500000 0.001094
v 0.500000 -0.001117 0.000594
v 0.001034 -0.000734 0.500000
v 0.500000 -0.001177 0.500000
v 0.001363 -0.500000 0.500000
v 0.000686 -0.500000 0.050781
v 0.001014 -0.051011 0.500000
v 0.001034 -0.000734 0.500000
v 0.001014 -0.051011 0.500000
v 0.050340 -0.500000 0.001049
v 0.500000 -0.500000 0.001212
v 0.000669 -0.500000 0.001094
v 0.001363 -0.500000 0.500000
v 0.000686 -0.500000 0.050781
v 0.500000 -0.001117 0.000594
v 0.500000 -0.001177 0.500000
v 0.500000 -0.050651 0.000599
vt 1.000000 0.090529
vt 1.000000 0.909743
vt 0.183139 0.091515
vt 0.090481 0.000000
vt 1.000000 0.000000
vt 1.000000 0.909707
vt 0.909743 0.909743
vt 0.090529 0.090529
vt 1.000000 0.909540
vt 0.182519 0.091236
vt 1.000000 0.091612
vt 0.091604 0.000000
vt 1.000000 0.909519
vt 0.909540 0.909540
vt 0.091612 0.091612
vt 0.375000 0.874659
vt 0.375000 0.750000
vt 0.499706 0.750000
vt 0.499816 0.874742
vt 0.487247 0.874747
vt 0.250171 0.637695
vt 0.250167 0.625274
vt 0.262585 0.625262
vt 0.375000 0.625303
vt 0.250341 0.750000
vt 0.487337 0.625150
vt 0.499721 0.625149
vt 0.908260 0.091027
vt 0.909707 0.909707
vt 0.000000 0.000000
vt 0.908396 0.000000
vn 0.0004 -0.0014 -1.0000
vn -0.0009 -0.0001 -1.0000
vn -1.0000 -0.0008 0.0015
vn -1.0000 0.0004 0.0003
vn 0.0000 0.0000 1.0000
vn 0.0000 -1.0000 0.0000
vn 1.0000 0.0000 0.0000
vn 0.0007 1.0000 -0.0001
usemtl Material
s off
f 73/80/23 80/81/23 74/82/23
f 75/83/24 59/84/24 78/85/24 80/86/24 73/87/24
f 77/88/25 68/89/25 72/90/25
f 71/91/26 59/84/26 75/92/26 77/93/26 72/94/26
f 76/95/27 60/96/27 79/97/27 66/98/27 70/99/27
f 69/100/28 64/101/28 61/102/28 62/103/28 60/96/28 76/104/28
f 79/97/29 60/96/29 62/103/29 63/105/29 65/106/29
f 67/107/30 78/108/30 59/109/30 71/110/30
o Cube_cell.004_Cube_cell.003
v -0.001451 0.001341 -0.001454
v -0.500000 0.500000 -0.500000
v -0.500000 0.001254 -0.500000
v -0.000739 0.001398 -0.500000
v -0.500000 0.001377 -0.001421
v -0.500000 0.499986 -0.000946
v -0.000923 0.500000 -0.500000
v -0.000719 0.051015 -0.500000
v -0.001177 0.500000 -0.050972
v -0.001248 0.500000 -0.001350
v -0.001248 0.500000 -0.001350
v -0.500000 0.499986 -0.000946
v -0.500000 0.001254 -0.500000
v -0.500000 0.001377 -0.001421
v -0.000923 0.500000 -0.500000
v -0.000719 0.051015 -0.500000
v -0.001177 0.500000 -0.050972
v -0.000739 0.001398 -0.500000
vt 0.000000 0.000000
vt 0.908196 0.000000
vt 0.908250 0.908250
vt 1.000000 0.090524
vt 1.000000 0.909505
vt 0.182103 0.091493
vt 0.090514 0.000000
vt 1.000000 0.000000
vt 1.000000 0.909486
vt 0.909505 0.909505
vt 0.090524 0.090524
vt 1.000000 0.091804
vt 1.000000 1.000000
vt 0.090513 0.090513
vt 0.750312 0.624662
vt 0.750294 0.612257
vt 0.750231 0.500000
vt 0.875000 0.500000
vt 0.875000 0.624763
vt 0.625000 0.125237
vt 0.625000 0.250000
vt 0.500314 0.250000
vt 0.500344 0.125355
vt 0.500349 0.374815
vt 0.625000 0.374769
vt 0.512754 0.374820
vt 0.908250 0.000000
vt 0.999282 0.908910
vt 0.090514 0.000000
vn 0.0001 -0.0010 1.0000
vn 1.0000 0.0005 0.0006
vn 1.0000 -0.0004 0.0014
vn 0.0008 -0.0002 1.0000
vn -0.0000 1.0000 0.0000
vn -1.0000 0.0000 0.0000
vn 0.0000 0.0000 -1.0000
vn 0.0001 -1.0000 0.0001
usemtl Material
s off
f 81/111/31 92/112/31 85/113/31
f 97/114/32 96/115/32 95/116/32
f 91/117/33 81/118/33 98/119/33 96/120/33 97/121/33
f 92/122/34 81/123/34 91/124/34
f 90/125/35 89/126/35 87/127/35 82/128/35 86/129/35
f 86/130/36 82/131/36 93/132/36 94/133/36
f 84/134/37 93/132/37 82/131/37 87/135/37 88/136/37
f 81/111/38 85/137/38 83/138/38 98/139/38
o Cube_cell.005_Cube_cell.004
v -0.000958 -0.000997 -0.000666
v -0.500000 -0.500000 -0.500000
v -0.001268 -0.000612 -0.500000
v -0.000687 -0.500000 -0.500000
v -0.001201 -0.500000 -0.001104
v -0.051004 -0.000594 -0.500000
v -0.500000 -0.000767 -0.500000
v -0.500000 -0.000778 -0.051640
v -0.500000 -0.000817 -0.001293
v -0.500000 -0.500000 -0.000569
v -0.000687 -0.500000 -0.500000
v -0.001201 -0.500000 -0.001104
v -0.001268 -0.000612 -0.500000
v -0.051004 -0.000594 -0.500000
v -0.500000 -0.000767 -0.500000
v -0.500000 -0.000778 -0.051640
v -0.500000 -0.000817 -0.001293
v -0.500000 -0.500000 -0.000569
vt 1.000000 0.000000
vt 1.000000 0.908909
vt 0.090416 0.000000
vt 0.908909 0.908909
vt 0.000000 0.000000
vt 0.908180 0.000000
vt 0.908180 0.908180
vt 0.908256 0.000000
vt 0.909471 0.000000
vt 0.908779 0.818071
vt 0.091712 0.000000
vt 0.091712 0.091712
vt 0.091655 0.000000
vt 1.000000 0.909584
vt 0.909471 0.909471
vt 1.000000 0.091744
vt 1.000000 1.000000
vt 0.091655 0.091655
vt 0.499796 0.125323
vt 0.499805 0.137910
vt 0.499808 0.250000
vt 0.375000 0.250000
vt 0.375000 0.125142
vt 0.125000 0.500000
vt 0.249828 0.500000
vt 0.249700 0.624724
vt 0.125000 0.624858
vt 0.499847 0.374683
vt 0.375000 0.374828
vt 0.499852 0.362249
vn 1.0000 0.0012 -0.0006
vn 1.0000 -0.0005 0.0010
vn 0.0011 -0.0009 1.0000
vn -0.0004 1.0000 0.0000
vn 0.0004 1.0000 0.0008
vn -0.0013 0.0015 1.0000
vn -1.0000 0.0000 0.0000
vn 0.0000 -1.0000 0.0000
vn 0.0000 0.0000 -1.0000
usemtl Material
s off
f 99/140/39 109/141/39 111/142/39
f 109/143/40 99/144/40 110/145/40
f 110/146/41 99/144/41 108/147/41
f 112/148/42 113/149/42 114/150/42
f 114/151/43 115/152/43 99/140/43 111/153/43 112/154/43
f 108/155/44 99/156/44 115/157/44
f 107/158/45 106/159/45 105/160/45 100/161/45 116/162/45
f 100/163/46 102/164/46 103/165/46 116/166/46
f 101/167/47 102/168/47 100/161/47 105/160/47 104/169/47
o Cube_cell.006_Cube_cell.005
v -0.000648 0.000993 0.000825
v -0.500000 0.500000 0.500000
v -0.500000 0.000644 0.500000
v -0.500000 0.000931 0.001339
v -0.000715 0.000784 0.500000
v -0.500000 0.500000 0.001116
v -0.000864 0.500000 0.000568
v -0.000517 0.500000 0.500000
v -0.500000 0.000644 0.500000
v -0.500000 0.000931 0.001339
v -0.000864 0.500000 0.000568
v -0.000517 0.500000 0.500000
v -0.500000 0.500000 0.001116
v -0.000715 0.000784 0.500000
vt 0.000000 0.000000
vt 0.909393 0.000000
vt 0.999807 0.909587
vt 0.091142 0.000000
vt 0.091733 0.090490
vt 1.000000 0.090607
vt 1.000000 1.000000
vt 1.000000 0.091734
vt 0.091400 0.091400
vt 0.750216 0.625142
vt 0.875000 0.625279
vt 0.875000 0.750000
vt 0.750129 0.749829
vt 0.625000 1.000000
vt 0.500161 1.000000
vt 0.500196 0.875179
vt 0.625000 0.875129
vt 0.500233 0.124665
vt 0.500161 0.000000
vt 0.625000 0.000000
vt 0.625000 0.124721
vt 1.000000 0.000000
vt 1.000000 0.908858
vt 0.182272 0.090884
vt 0.091400 0.000000
vn 0.0002 -1.0000 -0.0005
vn 1.0000 -0.0004 0.0001
vn 1.0000 0.0004 -0.0007
vn 0.0000 1.0000 -0.0000
vn 0.0000 0.0000 1.0000
vn -1.0000 0.0000 0.0000
vn -0.0011 -0.0005 -1.0000
usemtl Material
s off
f 117/170/48 130/171/48 119/172/48 126/173/48
f 124/174/49 130/175/49 117/176/49
f 124/177/50 117/176/50 127/178/50
f 123/179/51 129/180/51 118/181/51 128/182/51
f 118/183/52 125/184/52 121/185/52 128/186/52
f 120/187/53 125/188/53 118/189/53 129/190/53
f 117/191/54 126/192/54 122/193/54 127/194/54
o Cube_cell.007_Cube_cell.006
v -0.000621 -0.000670 0.001387
v -0.500000 -0.500000 0.500000
v -0.000600 -0.500000 0.500000
v -0.001060 -0.500000 0.001266
v -0.000705 -0.000884 0.500000
v -0.500000 -0.000848 0.500000
v -0.500000 -0.500000 0.000622
v -0.500000 -0.000994 0.000827
v -0.000600 -0.500000 0.500000
v -0.001060 -0.500000 0.001266
v -0.500000 -0.000848 0.500000
v -0.500000 -0.000994 0.000827
v -0.000705 -0.000884 0.500000
v -0.500000 -0.500000 0.000622
vt 0.090555 0.000000
vt 1.000000 0.000000
vt 0.999105 0.908588
vt 0.908801 0.000000
vt 0.908588 0.908588
vt 0.000000 0.000000
vt 0.091609 0.090505
vt 1.000000 0.091199
vt 1.000000 1.000000
vt 0.090595 0.090595
vt 1.000000 0.091608
vt 0.499788 1.000000
vt 0.375000 1.000000
vt 0.375123 0.875150
vt 0.499779 0.875176
vt 0.499752 0.124793
vt 0.375000 0.124844
vt 0.375000 0.000000
vt 0.499788 0.000151
vt 0.249850 0.750000
vt 0.125000 0.750000
vt 0.125000 0.625156
vt 0.249735 0.625316
vt 1.000000 0.090595
vt 1.000000 0.909445
vt 0.091622 0.090191
vn 1.0000 -0.0009 -0.0009
vn 1.0000 0.0002 0.0002
vn 0.0001 1.0000 0.0004
vn -0.0006 1.0000 -0.0003
vn 0.0000 0.0000 1.0000
vn -1.0000 0.0000 0.0000
vn 0.0000 -1.0000 0.0000
vn 0.0012 0.0003 -1.0000
usemtl Material
s off
f 140/195/55 131/196/55 139/197/55
f 143/198/56 139/199/56 131/200/56
f 141/201/57 143/202/57 131/203/57
f 131/203/58 142/204/58 141/205/58
f 136/206/59 132/207/59 133/208/59 135/209/59
f 138/210/60 144/211/60 132/212/60 136/213/60
f 133/214/61 132/215/61 144/216/61 134/217/61
f 142/218/62 131/196/62 140/219/62 137/220/62
