# Blender 3.5.1
# www.blender.org
mtllib fracturedCube.mtl
o Cube_cell
v 1.000000 1.000000 -1.000000
v 0.491726 0.381109 -0.861997
v 0.610355 0.251536 -0.836999
v 0.548044 1.000000 -0.755427
v 1.000000 0.220882 -0.699130
v 1.000000 1.000000 -0.591783
v 1.000000 0.157011 -0.708011
v 0.516936 1.000000 -0.766759
v 1.000000 0.148257 -0.709251
v 1.000000 0.108139 -1.000000
v 0.624443 0.224695 -1.000000
v 0.480021 1.000000 -1.000000
v 0.470116 0.396559 -1.000000
v 0.592324 0.260244 -1.000000
v 1.000000 0.220882 -0.699130
v 1.000000 1.000000 -0.591783
v 0.548044 1.000000 -0.755427
v 0.516936 1.000000 -0.766759
v 0.624443 0.224695 -1.000000
v 1.000000 0.108139 -1.000000
v 0.480021 1.000000 -1.000000
v 0.470116 0.396559 -1.000000
v 0.592324 0.260244 -1.000000
v 1.000000 0.157011 -0.708011
v 1.000000 0.148257 -0.709251
vn -0.3376 -0.1285 0.9325
vn -0.3394 -0.1295 0.9317
vn -0.3402 -0.1318 0.9311
vn -0.2938 -0.9469 0.1306
vn -0.7412 -0.6697 0.0462
vn -0.7439 -0.6669 0.0418
vn -0.0000 1.0000 -0.0000
vn 1.0000 -0.0000 -0.0000
vn -0.0000 -0.0000 -1.0000
vn -0.9876 0.0162 0.1564
vt 0.625000 0.500000
vt 0.000000 0.000000
vt 1.000000 1.000000
vt 1.000000 0.000000
vt 0.000000 0.000000
vt 1.000000 0.000000
vt 0.681495 0.530572
vt 0.527610 0.537609
vt 0.625000 0.551027
vt 0.519626 0.536499
vt 0.685383 0.529155
vt 0.518532 0.536344
vt 0.886868 0.072262
vt 0.528087 0.453055
vt 0.247341 0.170636
vt 0.266346 0.266346
vt 0.266345 0.000000
vt 0.532530 0.449041
vt 1.000000 0.906211
vt 0.906211 0.906211
vt 0.148305 0.054693
vt 1.000000 0.054761
vt 0.054761 0.054761
vt 0.074901 0.000000
vt 1.000000 0.925099
vt 0.765300 0.000000
vt 0.234700 0.000000
vt 0.513517 0.500000
vt 0.689997 0.500000
vt 0.625000 0.435003
vt 0.549570 0.433765
vt 0.265909 0.265909
vt 1.000000 0.265909
vt 1.000000 0.910791
vt 0.910791 0.910791
vt 1.000000 0.886708
vt 0.886708 0.886708
s 0
usemtl Material
f 15/19/1 16/21/1 17/22/1
f 18/24/2 2/4/2 24/34/2 15/20/2 17/23/2
f 2/2/3 3/6/3 25/36/3 24/35/3
f 19/26/4 10/13/4 25/37/4 3/5/4
f 19/27/5 3/6/5 2/3/5 23/32/5
f 2/3/6 13/16/6 23/33/6
f 8/11/7 4/7/7 6/9/7 1/1/7 21/29/7
f 20/28/8 1/1/8 6/9/8 5/8/8 7/10/8 9/12/8
f 14/18/9 22/31/9 21/30/9 1/1/9 20/28/9 11/14/9
f 13/17/10 2/4/10 18/25/10 12/15/10
o Cube_cell.001
v 1.000000 -1.000000 -1.000000
v 0.450759 0.061532 -0.309254
v 0.610340 0.249373 -0.835556
v 1.000000 -1.000000 0.158300
v 1.000000 0.127732 -0.660346
v 1.000000 -0.029418 -0.265924
v -0.053120 -1.000000 0.151746
v 0.127924 -1.000000 -1.000000
v 1.000000 0.106577 -1.000000
v 1.000000 0.143212 -0.734319
v 0.687876 0.202942 -1.000000
v 1.000000 0.146782 -0.708283
v 0.625183 0.222255 -1.000000
v 0.617680 0.203871 -1.000000
v -0.053120 -1.000000 0.151746
v 1.000000 -1.000000 0.158300
v 0.617680 0.203871 -1.000000
v 0.127924 -1.000000 -1.000000
v 1.000000 0.106577 -1.000000
v 1.000000 0.143212 -0.734319
v 0.687876 0.202942 -1.000000
v 1.000000 0.127732 -0.660346
v 1.000000 0.146782 -0.708283
v 0.625183 0.222255 -1.000000
v 1.000000 -0.029418 -0.265924
vn 0.1237 0.9218 0.3673
vn -0.0058 0.4006 0.9162
vn 0.2925 0.9473 -0.1306
vn 0.1231 0.9222 0.3665
vn 0.2919 0.9476 -0.1299
vn -0.9162 0.3739 -0.1444
vn -0.0000 -1.0000 -0.0000
vn 1.0000 -0.0000 -0.0000
vn -0.0000 -0.0000 -1.0000
vn -0.9167 0.3727 -0.1443
vt 0.375000 0.500000
vt 0.000000 0.000000
vt 1.000000 0.000000
vt 1.000000 1.000000
vt 1.000000 0.000000
vt 0.000000 0.000000
vt 0.375000 0.644788
vt 0.515967 0.542457
vt 0.496323 0.591760
vt 0.243360 0.643968
vt 0.955337 0.013510
vt 0.881771 0.742617
vt 0.517902 0.533210
vt 0.525368 0.460984
vt 0.518348 0.536465
vt 0.527782 0.453148
vt 1.000000 0.066941
vt 0.066941 0.066941
vt 0.954763 0.000000
vt 0.954763 0.954763
vt 0.950762 0.906502
vt 0.525484 0.452210
vt 0.265991 0.500000
vt 0.375000 0.390991
vt 0.513322 0.500000
vt 0.881822 0.000000
vt 0.881822 0.881822
vt 0.138626 0.000000
vt 0.138626 0.138626
vt 0.082876 0.000000
vt 1.000000 0.917124
vt 0.887018 0.887018
vt 1.000000 0.887018
vt 0.231573 0.000000
vt 0.768427 0.000000
vt 1.000000 0.916555
vt 0.916555 0.916555
s 0
usemtl Material
f 27/40/11 50/73/11 47/67/11
f 27/39/12 40/56/12 41/58/12 50/74/12
f 46/65/13 45/63/13 34/49/13
f 47/68/14 48/69/14 28/43/14 27/40/14
f 49/71/15 28/42/15 48/70/15 45/64/15 46/66/15
f 28/43/16 49/72/16 39/54/16 27/41/16
f 32/47/17 43/60/17 26/38/17 29/44/17
f 35/50/18 37/52/18 30/45/18 31/46/18 29/44/18 26/38/18 44/62/18
f 36/51/19 44/62/19 26/38/19 43/61/19 42/59/19 38/53/19
f 27/41/20 39/55/20 33/48/20 40/57/20
o Cube_cell.002
v 1.000000 1.000000 1.000000
v 0.492209 0.380928 -0.859514
v 0.609244 0.251036 -0.834931
v 0.034310 0.235232 0.044240
v 0.449922 0.062854 -0.308134
v 0.013298 0.296240 -0.018351
v -0.055236 1.000000 0.269923
v -0.056150 1.000000 0.264612
v 0.070592 1.000000 0.987804
v 0.517129 1.000000 -0.764688
v 0.163290 0.467540 1.000000
v 0.072742 1.000000 1.000000
v 0.180183 0.464377 1.000000
v 1.000000 1.000000 -0.589543
v 1.000000 0.157232 -0.706452
v 1.000000 0.148343 -0.707666
v 1.000000 0.311620 1.000000
v 1.000000 -0.027634 -0.264526
v 0.070592 1.000000 0.987804
v 0.072742 1.000000 1.000000
v 0.517129 1.000000 -0.764688
v 1.000000 1.000000 -0.589543
v 1.000000 0.157232 -0.706452
v 1.000000 0.148343 -0.707666
v 0.163290 0.467540 1.000000
v 0.180183 0.464377 1.000000
v 1.000000 -0.027634 -0.264526
v 1.000000 0.311620 1.000000
v -0.055236 1.000000 0.269923
v -0.056150 1.000000 0.264612
vn -0.9723 -0.1632 0.1673
vn -0.9716 -0.1640 0.1703
vn -0.1769 -0.9506 0.2552
vn -0.6312 -0.6491 -0.4247
vn -0.9713 -0.1652 0.1712
vn -0.1780 -0.9504 0.2550
vn -0.8685 0.1089 -0.4836
vn 0.3373 0.1273 -0.9328
vn -0.6293 -0.6518 -0.4233
vn -0.1228 -0.9223 -0.3664
vn -0.0000 1.0000 -0.0000
vn -0.0000 -0.0000 1.0000
vn 1.0000 -0.0000 -0.0000
vn 0.3380 0.1293 -0.9322
vt 0.625000 0.750000
vt 0.000000 0.000000
vt 1.000000 1.000000
vt 1.000000 0.000000
vt 1.000000 0.000000
vt 0.000000 0.000000
vt 1.000000 1.000000
vt 0.000000 0.000000
vt 1.000000 1.000000
vt 1.000000 0.000000
vt 1.000000 1.000000
vt 0.000000 0.000000
vt 1.000000 0.000000
vt 0.000000 0.000000
vt 1.000000 0.000000
vt 1.000000 1.000000
vt 0.756904 0.658740
vt 0.757019 0.658077
vt 0.741176 0.748475
vt 0.685359 0.529414
vt 0.558443 0.854589
vt 0.740907 0.750000
vt 0.625000 0.865907
vt 0.558047 0.852477
vt 0.149149 0.094245
vt 0.519654 0.536694
vt 0.518543 0.536542
vt 0.538952 0.750000
vt 0.496546 0.591934
vt 0.938462 0.000000
vt 1.000000 0.061538
vt 0.982672 0.049405
vt 0.075344 0.000000
vt 1.000000 0.924656
vt 0.625000 0.551307
vt 0.089664 0.089664
vt 0.089664 0.000000
vt 0.113472 0.000000
vt 0.113472 0.113472
vt 0.049257 0.049257
vt 1.000000 0.049257
vt 0.963528 0.963528
vt 0.963528 0.000000
vt 0.083479 0.083479
vt 1.000000 0.083479
vt 0.962859 0.031774
vt 1.000000 0.939040
vt 0.939040 0.939040
vt 0.934103 0.934103
vt 1.000000 0.934103
s 0
usemtl Material
f 56/88/21 54/84/21 79/121/21 80/123/21
f 54/82/22 69/104/22 79/122/22
f 55/85/23 77/118/23 78/120/23 76/116/23
f 52/76/24 53/79/24 56/90/24
f 69/105/25 54/83/25 75/114/25 70/106/25
f 54/83/26 55/86/26 76/117/26 75/115/26
f 52/76/27 56/89/27 80/124/27 71/107/27
f 74/112/28 53/79/28 52/77/28 73/110/28
f 53/80/29 55/87/29 54/84/29 56/90/29
f 74/113/30 77/119/30 55/87/30 53/81/30
f 57/91/31 59/93/31 62/96/31 51/75/31 72/109/31 60/94/31 58/92/31
f 67/102/32 51/75/32 62/97/32 61/95/32 63/98/32
f 66/101/33 65/100/33 72/109/33 51/75/33 67/102/33 68/103/33
f 73/111/34 52/78/34 71/108/34 64/99/34
o Cube_cell.003
v 1.000000 -1.000000 1.000000
v 0.449548 0.061482 -0.306567
v 0.033669 0.232928 0.045405
v -0.605861 -0.442072 0.613126
v -0.054146 -1.000000 0.153602
v 1.000000 -1.000000 0.160657
v -0.425193 -1.000000 0.472079
v -0.456993 -1.000000 0.499441
v -0.603585 -0.404333 1.000000
v 0.162484 0.465852 1.000000
v 0.179682 0.462676 1.000000
v 1.000000 -0.029841 -0.262890
v 1.000000 0.309448 1.000000
v -0.439927 -1.000000 1.000000
v -0.455926 -1.000000 0.532224
v -0.589006 -0.457646 1.000000
v -0.054146 -1.000000 0.153602
v -0.425193 -1.000000 0.472079
v -0.603585 -0.404333 1.000000
v 0.162484 0.465852 1.000000
v 0.179682 0.462676 1.000000
v 1.000000 0.309448 1.000000
v -0.439927 -1.000000 1.000000
v -0.455926 -1.000000 0.532224
v -0.456993 -1.000000 0.499441
v -0.589006 -0.457646 1.000000
v 1.000000 -1.000000 0.160657
v 1.000000 -0.029841 -0.262890
vn -0.7493 0.6596 -0.0599
vn -0.6521 -0.0196 -0.7579
vn 0.1777 0.9504 -0.2552
vn 0.1756 0.9507 -0.2557
vn -0.6509 -0.0202 -0.7589
vn -0.9637 -0.2649 0.0330
vn -0.9641 -0.2636 0.0314
vn -0.0000 -0.0000 1.0000
vn -0.0000 -1.0000 -0.0000
vn 1.0000 -0.0000 -0.0000
vn 0.0062 -0.4002 -0.9164
vt 0.375000 0.750000
vt 1.000000 0.000000
vt 1.000000 1.000000
vt 1.000000 1.000000
vt 0.000000 0.000000
vt 0.000000 0.000000
vt 1.000000 0.000000
vt 0.243232 0.644200
vt 0.955295 0.020799
vt 0.196851 0.684010
vt 0.192876 0.687430
vt 0.449458 0.950448
vt 0.558231 0.854689
vt 0.557835 0.852540
vt 0.496270 0.592139
vt 0.538681 0.750000
vt 0.923600 0.834418
vt 0.193009 0.691528
vt 0.442794 0.948626
vt 1.000000 0.954699
vt 0.954699 0.954699
vt 0.038798 0.038798
vt 0.038798 0.000000
vt 0.885133 0.000000
vt 0.114867 0.000000
vt 1.000000 0.050114
vt 0.050114 0.050114
vt 0.037115 0.037115
vt 0.037115 0.000000
vt 0.968519 0.036752
vt 0.375000 0.929991
vt 0.195009 0.750000
vt 0.923476 0.000000
vt 0.923476 0.923476
vt 0.081893 0.000000
vt 1.000000 0.918107
vt 0.089509 0.000000
vt 0.089509 0.089509
vt 0.375000 0.645082
vt 1.000000 0.082731
vt 0.082731 0.082731
s 0
usemtl Material
f 100/150/35 83/128/35 84/130/35 99/148/35
f 84/131/36 83/128/36 98/146/36 105/159/36
f 108/164/37 82/127/37 101/152/37 102/154/37
f 101/153/38 82/126/38 83/128/38 100/151/38
f 97/144/39 98/147/39 83/129/39 82/126/39
f 104/157/40 94/141/40 106/161/40
f 99/149/41 84/131/41 105/160/41 104/158/41 106/162/41
f 90/137/42 89/136/42 96/143/42 103/155/42 81/125/42 93/140/42 91/138/42
f 88/135/43 87/134/43 85/132/43 107/163/43 81/125/43 103/156/43 95/142/43
f 93/140/44 81/125/44 107/163/44 92/139/44
f 82/127/45 108/165/45 86/133/45 97/145/45
o Cube_cell.004
v -1.000000 1.000000 -1.000000
v 0.011371 0.297186 -0.019309
v 0.490626 0.381281 -0.861462
v -0.640013 0.413947 -1.000000
v 0.468054 0.397323 -1.000000
v -1.000000 0.419538 -1.000000
v -1.000000 0.331930 -0.196268
v -0.979573 1.000000 0.089453
v -1.000000 1.000000 0.085583
v 0.477441 1.000000 -1.000000
v 0.475539 0.873183 -1.000000
v 0.515322 1.000000 -0.766375
v -0.057974 1.000000 0.262698
v -0.640013 0.413947 -1.000000
v -1.000000 0.419538 -1.000000
v -1.000000 0.331930 -0.196268
v -0.979573 1.000000 0.089453
v -1.000000 1.000000 0.085583
v 0.477441 1.000000 -1.000000
v 0.515322 1.000000 -0.766375
v -0.057974 1.000000 0.262698
v 0.468054 0.397323 -1.000000
v 0.475539 0.873183 -1.000000
vn -0.0149 -0.9935 -0.1126
vn 0.8685 -0.1087 0.4836
vn -0.1720 -0.3829 0.9076
vn 0.9870 -0.0148 -0.1600
vn 0.9866 -0.0155 -0.1625
vn -0.1708 -0.3814 0.9085
vn -0.0000 1.0000 -0.0000
vn -1.0000 -0.0000 -0.0000
vn -0.0000 -0.0000 -1.0000
vn -0.0154 -0.9940 -0.1082
vt 0.875000 0.500000
vt 0.625000 0.250000
vt 0.000000 0.000000
vt 1.000000 0.000000
vt 1.000000 1.000000
vt 1.000000 0.000000
vt 0.000000 0.000000
vt 0.551743 0.294998
vt 0.549665 0.433507
vt 0.967380 0.915193
vt 0.952700 0.952700
vt 1.000000 0.952700
vt 0.872447 0.636182
vt 0.875000 0.635698
vt 0.625000 0.114302
vt 0.690320 0.500000
vt 0.625000 0.434680
vt 0.609148 0.434442
vt 0.685585 0.529203
vt 0.757247 0.657837
vt 1.000000 0.733756
vt 0.733756 0.733756
vt 0.552442 0.250000
vt 0.541491 0.149534
vt 0.933960 0.000000
vt 0.933960 0.933960
vt 0.953201 0.020221
vt 0.877240 0.802525
vt 0.074253 0.074253
vt 0.074253 0.000000
vt 1.000000 0.066832
vt 0.933168 0.000000
vt 0.264940 0.000000
vt 0.735060 0.000000
vt 1.000000 0.735576
vt 0.735576 0.735576
s 0
usemtl Material
f 111/171/46 122/186/46 130/198/46
f 129/196/47 110/169/47 111/170/47 128/194/47
f 125/190/48 126/192/48 115/176/48 110/168/48
f 128/195/49 111/171/49 131/200/49 127/193/49
f 111/172/50 130/199/50 131/201/50
f 125/191/51 110/168/51 129/197/51
f 121/185/52 120/184/52 118/181/52 109/166/52 117/179/52 116/178/52
f 123/188/53 124/189/53 117/180/53 109/167/53
f 112/173/54 123/188/54 109/167/54 118/182/54 119/183/54 113/174/54
f 111/172/55 110/169/55 115/177/55 114/175/55 122/187/55
o Cube_cell.005
v -1.000000 -1.000000 -1.000000
v 0.448488 0.061540 -0.308529
v 0.608337 0.250611 -0.836648
v -0.607515 -0.441875 0.611538
v 0.011734 0.295681 -0.019607
v 0.490760 0.379203 -0.860736
v 0.033283 0.233888 0.044018
v -1.000000 -0.462234 0.515670
v -0.491119 -1.000000 0.490357
v -1.000000 -1.000000 0.372143
v -1.000000 -0.413063 0.528710
v -0.457523 -1.000000 0.498101
v -1.000000 -0.379699 0.496271
v -1.000000 0.327322 -0.193439
v -1.000000 0.417369 -1.000000
v 0.439191 0.395199 -1.000000
v 0.468878 0.394707 -1.000000
v 0.495566 0.365177 -1.000000
v 0.622691 0.223598 -1.000000
v 0.229559 -0.744576 -1.000000
v -0.055747 -1.000000 0.152603
v 0.125747 -1.000000 -1.000000
v -0.425751 -1.000000 0.470870
v -1.000000 -0.462234 0.515670
v -1.000000 -1.000000 0.372143
v -1.000000 -0.413063 0.528710
v -1.000000 -0.379699 0.496271
v -1.000000 0.417369 -1.000000
v 0.439191 0.395199 -1.000000
v -1.000000 0.327322 -0.193439
v -0.055747 -1.000000 0.152603
v 0.125747 -1.000000 -1.000000
v 0.229559 -0.744576 -1.000000
v 0.622691 0.223598 -1.000000
v -0.425751 -1.000000 0.470870
v -0.457523 -1.000000 0.498101
v 0.468878 0.394707 -1.000000
v -0.491119 -1.000000 0.490357
v 0.495566 0.365177 -1.000000
vn -0.2190 -0.2516 0.9427
vn -0.2175 -0.2502 0.9435
vn -0.0996 0.6936 0.7134
vn -0.1008 0.6947 0.7122
vn 0.6280 0.6536 0.4225
vn 0.7413 0.6699 -0.0419
vn 0.7433 0.6674 -0.0451
vn 0.0165 0.9940 0.1081
vn 0.9171 -0.3724 0.1422
vn 0.0141 0.9940 0.1088
vn 0.9167 -0.3727 0.1442
vn 0.6506 0.0206 0.7591
vn 0.6299 0.6509 0.4237
vn -0.1003 0.6965 0.7105
vn -1.0000 -0.0000 -0.0000
vn -0.0000 -1.0000 -0.0000
vn -0.0000 -0.0000 -1.0000
vn 0.6519 0.0197 0.7580
vt 0.125000 0.500000
vt 0.375000 0.250000
vt 0.000000 0.000000
vt 0.000000 0.000000
vt 1.000000 0.000000
vt 0.000000 0.000000
vt 1.000000 0.000000
vt 1.000000 0.000000
vt 0.000000 0.000000
vt 0.000000 0.000000
vt 1.000000 0.000000
vt 0.000000 0.000000
vt 1.000000 1.000000
vt 1.000000 0.000000
vt 0.442221 0.060541
vt 0.188610 0.686295
vt 0.375000 0.078482
vt 0.125000 0.671518
vt 0.448367 0.058911
vt 0.192810 0.687263
vt 0.452538 0.062966
vt 0.541265 0.149522
vt 0.552171 0.250000
vt 0.549400 0.429899
vt 0.549338 0.433610
vt 0.545647 0.436946
vt 0.527950 0.452836
vt 0.406928 0.403695
vt 0.243032 0.644075
vt 0.265718 0.500000
vt 0.375000 0.390718
vt 0.196781 0.683859
vt 0.917459 0.000000
vt 0.917459 0.917459
vt 0.917703 0.839891
vt 1.000000 0.886995
vt 0.886995 0.886995
vt 1.000000 0.953841
vt 0.953841 0.953841
vt 0.998275 0.951343
vt 0.951428 0.951428
vt 0.951429 0.000000
vt 0.954245 0.000000
vt 0.046684 0.000000
vt 1.000000 0.045755
vt 0.955364 0.000000
vt 0.955364 0.955364
vt 0.955051 0.941334
vt 1.000000 0.765189
vt 0.765189 0.765189
vt 0.766312 0.000000
vt 0.233688 0.000000
vt 0.961367 0.961367
vt 1.000000 0.961367
vt 0.081592 0.000000
vt 1.000000 0.918408
vt 0.735623 0.735623
vt 1.000000 0.735623
vt 0.077452 0.000000
vt 0.077452 0.077452
vt 1.000000 0.765465
vt 0.765465 0.765465
s 0
usemtl Material
f 155/234/56 156/236/56 169/260/56
f 135/208/57 157/237/57 155/235/57 169/261/57 167/256/57
f 135/207/58 138/215/58 158/239/58 157/238/58
f 161/244/59 158/240/59 138/213/59
f 137/211/60 136/209/60 138/214/60 134/205/60
f 170/262/61 168/258/61 137/211/61 134/206/61
f 134/205/62 165/252/62 170/263/62
f 160/242/63 136/210/63 137/212/63 168/259/63
f 134/206/64 164/250/64 165/253/64
f 136/210/65 160/243/65 159/241/65 161/245/65
f 163/249/66 164/251/66 134/205/66 133/204/66 162/247/66
f 166/254/67 138/213/67 135/208/67 167/257/67
f 133/204/68 134/206/68 138/214/68
f 138/214/69 136/210/69 161/246/69
f 146/224/70 132/203/70 141/218/70 139/216/70 142/220/70 144/222/70 145/223/70
f 140/217/71 141/219/71 132/202/71 153/231/71 152/230/71 154/233/71 143/221/71
f 132/203/72 146/224/72 147/225/72 148/226/72 149/227/72 150/228/72 151/229/72 153/232/72
f 138/215/73 166/255/73 162/248/73 133/204/73
o Cube_cell.006
v -1.000000 1.000000 1.000000
v 0.011317 0.296267 -0.017516
v -0.607953 -0.441181 0.613603
v 0.032266 0.234869 0.045221
v 0.078443 0.373456 1.000000
v -0.605389 -0.402931 1.000000
v 0.160691 0.466895 1.000000
v 0.067206 1.000000 0.978960
v 0.070890 1.000000 1.000000
v -0.058481 1.000000 0.265683
v -0.999713 -0.365531 1.000000
v -1.000000 -0.411893 0.530191
v -1.000000 0.331071 -0.193884
v -1.000000 1.000000 0.087711
v 0.067206 1.000000 0.978960
v 0.070890 1.000000 1.000000
v -0.605389 -0.402931 1.000000
v -0.999713 -0.365531 1.000000
v 0.160691 0.466895 1.000000
v -1.000000 0.331071 -0.193884
v -1.000000 1.000000 0.087711
v 0.078443 0.373456 1.000000
v -1.000000 -0.411893 0.530191
v -0.058481 1.000000 0.265683
vn 0.7491 -0.6598 0.0603
vn 0.7493 -0.6596 0.0595
vn 0.9727 0.1588 -0.1694
vn 0.9717 0.1637 -0.1701
vn 0.9713 0.1652 -0.1712
vn -0.0940 -0.9907 0.0987
vn -0.0948 -0.9907 0.0978
vn 0.1002 -0.6943 -0.7127
vn -0.0000 1.0000 -0.0000
vn -0.0000 -0.0000 1.0000
vn -1.0000 -0.0001 0.0002
vn 0.1716 0.3823 -0.9080
vt 0.875000 0.750000
vt 0.625000 1.000000
vt 0.625000 0.000000
vt 0.000000 0.000000
vt 1.000000 0.000000
vt 1.000000 1.000000
vt 0.000000 0.000000
vt 1.000000 0.000000
vt 1.000000 1.000000
vt 0.000000 0.000000
vt 1.000000 0.000000
vt 0.546682 0.865195
vt 0.449634 0.950674
vt 0.558811 0.854987
vt 0.741599 0.747370
vt 0.741139 0.750000
vt 0.625000 0.866139
vt 0.757310 0.658210
vt 0.454309 0.999964
vt 0.454312 0.000000
vt 0.448513 0.058726
vt 0.541384 0.149235
vt 0.979533 0.047253
vt 0.933383 0.000000
vt 0.933383 0.933383
vt 0.953090 0.026015
vt 0.114432 0.000000
vt 1.000000 0.885568
vt 0.113739 0.000000
vt 0.113624 0.113089
vt 1.000000 0.950149
vt 0.950149 0.950149
vt 0.953079 0.953079
vt 0.047467 0.000000
vt 0.047467 0.047467
vt 0.875000 0.635964
vt 0.625000 0.114036
vt 1.000000 0.885235
vt 0.885235 0.885235
vt 1.000000 0.113074
vt 0.113074 0.113074
vt 0.934136 0.000000
vt 1.000000 0.065864
s 0
usemtl Material
f 173/271/74 192/301/74 187/290/74
f 173/270/75 174/274/75 189/294/75 192/302/75
f 174/273/76 172/268/76 189/295/76
f 185/287/77 186/289/77 189/296/77 172/267/77
f 172/267/78 194/305/78 185/288/78
f 187/291/79 188/292/79 173/271/79
f 193/303/80 173/272/80 188/293/80
f 172/268/81 174/274/81 173/272/81 193/304/81 190/297/81
f 191/299/82 171/264/82 179/279/82 178/278/82 180/281/82
f 181/282/83 176/276/83 175/275/83 177/277/83 179/280/83 171/265/83
f 182/284/84 181/283/84 171/266/84 191/300/84 183/285/84
f 194/306/85 172/269/85 190/298/85 184/286/85
o Cube_cell.007
v -0.608180 -0.443072 0.613718
v -1.000000 -1.000000 1.000000
v -1.000000 -0.367611 1.000000
v -0.647006 -0.400946 1.000000
v -1.000000 -0.408880 0.579459
v -0.441686 -1.000000 1.000000
v -0.457278 -1.000000 0.533304
v -0.590727 -0.458076 1.000000
v -0.605389 -0.404939 1.000000
v -0.458414 -1.000000 0.500333
v -1.000000 -0.413741 0.530554
v -1.000000 -1.000000 0.374740
v -0.647006 -0.400946 1.000000
v -0.605389 -0.404939 1.000000
v -1.000000 -0.367611 1.000000
v -0.441686 -1.000000 1.000000
v -0.457278 -1.000000 0.533304
v -0.590727 -0.458076 1.000000
v -1.000000 -0.413741 0.530554
v -1.000000 -1.000000 0.374740
v -1.000000 -0.408880 0.579459
v -0.458414 -1.000000 0.500333
vn 0.0936 0.9909 -0.0972
vn 0.9637 0.2650 -0.0322
vn 0.9634 0.2658 -0.0332
vn 0.0951 0.9906 -0.0985
vn -0.0000 -0.0000 1.0000
vn -1.0000 -0.0000 -0.0000
vn -0.0000 -1.0000 -0.0000
vn 0.2188 0.2507 -0.9430
vt 1.000000 0.000000
vt 0.000000 0.000000
vt 0.375000 1.000000
vt 0.375000 0.000000
vt 0.125000 0.750000
vt 0.888075 0.794118
vt 0.449882 0.955876
vt 0.448890 0.052568
vt 0.375000 0.930211
vt 0.194789 0.750000
vt 0.192840 0.691663
vt 0.442741 0.948841
vt 0.449383 0.950674
vt 0.192698 0.687542
vt 0.448282 0.058681
vt 0.917482 0.077801
vt 0.094351 0.000000
vt 1.000000 0.905648
vt 1.000000 0.885371
vt 0.885371 0.885371
vt 0.454049 1.000000
vt 0.454049 0.000000
vt 0.910484 0.834108
vt 0.077121 0.000000
vt 0.077121 0.077121
vt 0.910675 0.000000
vt 0.910675 0.910675
vt 0.886937 0.000000
vt 0.886937 0.886937
vt 0.375000 0.078157
vt 0.125000 0.671843
vt 0.887738 0.000000
vt 1.000000 0.112262
vt 0.082592 0.000000
vt 0.917408 0.000000
s 0
usemtl Material
f 207/323/86 215/338/86 197/312/86
f 211/330/87 212/332/87 210/329/87
f 195/307/88 208/325/88 212/333/88 211/331/88 216/340/88
f 195/308/89 213/334/89 215/339/89 207/324/89 208/326/89
f 202/318/90 203/319/90 198/313/90 209/327/90 196/309/90 200/315/90
f 214/336/91 196/310/91 209/328/91 199/314/91 205/321/91
f 201/317/92 200/316/92 196/311/92 214/337/92 204/320/92
f 216/341/93 206/322/93 213/335/93 195/308/93
